<svg width="40" height="40" viewBox="0 0 40 40" fill="none" xmlns="http://www.w3.org/2000/svg">
<circle cx="20" cy="20" r="20" fill="#1967D2"/>
<path d="M19.4785 25.7083H10.865L10.7587 25.7156C10.5627 25.7426 10.3841 25.843 10.2592 25.9966C10.1343 26.1501 10.0723 26.3453 10.0858 26.5428C10.0993 26.7403 10.1872 26.9253 10.3319 27.0604C10.4765 27.1956 10.6671 27.2708 10.865 27.2708H19.5379C19.4583 26.754 19.4384 26.2297 19.4785 25.7083ZM10.865 21.5417H21.3442C20.8976 22.0066 20.5195 22.5327 20.2212 23.1042H10.865C10.6671 23.1041 10.4765 23.0289 10.3319 22.8938C10.1872 22.7586 10.0993 22.5736 10.0858 22.3762C10.0723 22.1787 10.1343 21.9834 10.2592 21.8299C10.3841 21.6763 10.5627 21.5759 10.7587 21.549L10.865 21.5417ZM30.1358 17.375H10.865L10.7587 17.3823C10.5627 17.4093 10.3841 17.5097 10.2592 17.6632C10.1343 17.8168 10.0723 18.012 10.0858 18.2095C10.0993 18.407 10.1872 18.592 10.3319 18.7271C10.4765 18.8622 10.6671 18.9374 10.865 18.9375H30.1358L30.2421 18.9302C30.4382 18.9032 30.6167 18.8028 30.7416 18.6493C30.8665 18.4957 30.9285 18.3005 30.915 18.103C30.9015 17.9055 30.8136 17.7205 30.6689 17.5854C30.5243 17.4502 30.3338 17.3751 30.1358 17.375ZM30.1358 13.2083H10.865L10.7587 13.2156C10.5627 13.2426 10.3841 13.343 10.2592 13.4966C10.1343 13.6501 10.0723 13.8453 10.0858 14.0428C10.0993 14.2403 10.1872 14.4253 10.3319 14.5604C10.4765 14.6956 10.6671 14.7708 10.865 14.7708H30.1358L30.2421 14.7635C30.4382 14.7366 30.6167 14.6361 30.7416 14.4826C30.8665 14.329 30.9285 14.1338 30.915 13.9363C30.9015 13.7388 30.8136 13.5538 30.6689 13.4187C30.5243 13.2836 30.3338 13.2084 30.1358 13.2083ZM22.8733 22.5573C22.9512 22.8267 22.9739 23.109 22.9401 23.3874C22.9062 23.6657 22.8166 23.9344 22.6764 24.1773C22.5362 24.4202 22.3485 24.6322 22.1244 24.8008C21.9003 24.9694 21.6445 25.091 21.3723 25.1583L20.764 25.3083C20.6665 25.9321 20.6686 26.5675 20.7702 27.1906L21.3327 27.326C21.6073 27.3922 21.8655 27.5134 22.0918 27.6825C22.318 27.8515 22.5075 28.0648 22.6488 28.3093C22.7901 28.5539 22.8801 28.8246 22.9135 29.105C22.9469 29.3854 22.923 29.6697 22.8431 29.9406L22.6483 30.599C23.1067 31.001 23.6275 31.3271 24.1942 31.5583L24.7087 31.0187C24.9034 30.814 25.1376 30.651 25.3971 30.5397C25.6567 30.4283 25.9362 30.3709 26.2186 30.3709C26.5011 30.3709 26.7806 30.4283 27.0402 30.5397C27.2997 30.651 27.5339 30.814 27.7285 31.0187L28.2473 31.5656C28.8113 31.3363 29.3333 31.0149 29.7921 30.6146L29.5858 29.9C29.5081 29.6307 29.4855 29.3485 29.5194 29.0702C29.5534 28.792 29.6431 28.5234 29.7832 28.2807C29.9234 28.0379 30.1111 27.8259 30.3351 27.6574C30.5591 27.4889 30.8148 27.3673 31.0869 27.3L31.6952 27.15C31.793 26.5259 31.7909 25.8901 31.689 25.2667L31.1265 25.1312C30.8519 25.0651 30.5936 24.9438 30.3674 24.7748C30.1412 24.6058 29.9516 24.3925 29.8104 24.148C29.6691 23.9034 29.579 23.6327 29.5456 23.3523C29.5122 23.0718 29.5362 22.7875 29.616 22.5167L29.8108 21.8604C29.3526 21.4563 28.8301 21.1313 28.265 20.899L27.7515 21.4396C27.5568 21.6444 27.3226 21.8076 27.0629 21.9191C26.8032 22.0305 26.5236 22.088 26.241 22.088C25.9585 22.088 25.6788 22.0305 25.4192 21.9191C25.1595 21.8076 24.9252 21.6444 24.7306 21.4396L24.2119 20.8927C23.6452 21.1219 23.1244 21.4448 22.6671 21.8427L22.8733 22.5573ZM26.2296 27.7917C25.3962 27.7917 24.7192 27.0917 24.7192 26.2292C24.7192 25.3656 25.3962 24.6667 26.2296 24.6667C27.0629 24.6667 27.74 25.3656 27.74 26.2292C27.74 27.0917 27.0629 27.7917 26.2296 27.7917Z" fill="white"/>
</svg>
