<svg width="25" height="20" viewBox="0 0 25 20" fill="none" xmlns="http://www.w3.org/2000/svg">
<path d="M22.5725 0.625H1.94751C1.45023 0.625 0.973315 0.822544 0.621684 1.17417C0.270054 1.52581 0.0725098 2.00272 0.0725098 2.5V17.5C0.0725098 17.9973 0.270054 18.4742 0.621684 18.8258C0.973315 19.1775 1.45023 19.375 1.94751 19.375H22.5725C23.0698 19.375 23.5467 19.1775 23.8983 18.8258C24.25 18.4742 24.4475 17.9973 24.4475 17.5V2.5C24.4475 2.00272 24.25 1.52581 23.8983 1.17417C23.5467 0.822544 23.0698 0.625 22.5725 0.625ZM9.44751 11.875V8.125H15.0725V11.875H9.44751ZM15.0725 13.75V17.5H9.44751V13.75H15.0725ZM1.94751 8.125H7.57251V11.875H1.94751V8.125ZM9.44751 6.25V2.5H15.0725V6.25H9.44751ZM16.9475 8.125H22.5725V11.875H16.9475V8.125ZM22.5725 6.25H16.9475V2.5H22.5725V6.25ZM7.57251 2.5V6.25H1.94751V2.5H7.57251ZM1.94751 13.75H7.57251V17.5H1.94751V13.75ZM22.5725 17.5H16.9475V13.75H22.5725V17.5Z" fill="#5F6368"/>
</svg>
