<svg width="31" height="30" viewBox="0 0 31 30" fill="none" xmlns="http://www.w3.org/2000/svg">
<path d="M4.01001 21.25V8.75C4.01001 8.0625 4.25459 7.47417 4.74376 6.985C5.23376 6.495 5.82251 6.25 6.51001 6.25H24.01C24.6975 6.25 25.2863 6.495 25.7763 6.985C26.2654 7.47417 26.51 8.0625 26.51 8.75V21.25C26.51 21.9375 26.2654 22.5263 25.7763 23.0163C25.2863 23.5054 24.6975 23.75 24.01 23.75H6.51001C5.82251 23.75 5.23376 23.5054 4.74376 23.0163C4.25459 22.5263 4.01001 21.9375 4.01001 21.25ZM6.51001 11.25H9.01001V8.75H6.51001V11.25ZM11.51 11.25H24.01V8.75H11.51V11.25ZM11.51 16.25H24.01V13.75H11.51V16.25ZM11.51 21.25H24.01V18.75H11.51V21.25ZM6.51001 21.25H9.01001V18.75H6.51001V21.25ZM6.51001 16.25H9.01001V13.75H6.51001V16.25Z" fill="#5F6368"/>
</svg>
