<svg width="7" height="23" viewBox="0 0 7 23" fill="none" xmlns="http://www.w3.org/2000/svg">
<path d="M6.23439 11.5C6.23439 12.0408 6.07402 12.5695 5.77356 13.0191C5.4731 13.4688 5.04605 13.8193 4.54641 14.0262C4.04676 14.2332 3.49697 14.2874 2.96655 14.1818C2.43614 14.0763 1.94892 13.8159 1.56651 13.4335C1.1841 13.0511 0.923673 12.5639 0.818167 12.0335C0.71266 11.503 0.76681 10.9533 0.973768 10.4536C1.18073 9.95397 1.5312 9.52692 1.98087 9.22646C2.43053 8.926 2.9592 8.76563 3.50001 8.76563C4.22521 8.76563 4.92071 9.05372 5.4335 9.56651C5.9463 10.0793 6.23439 10.7748 6.23439 11.5ZM3.50001 6.42188C4.04082 6.42188 4.56948 6.26151 5.01915 5.96106C5.46881 5.6606 5.81928 5.23355 6.02624 4.7339C6.2332 4.23426 6.28735 3.68447 6.18185 3.15405C6.07634 2.62364 5.81591 2.13642 5.4335 1.75401C5.0511 1.3716 4.56387 1.11117 4.03346 1.00567C3.50304 0.90016 2.95325 0.95431 2.4536 1.16127C1.95396 1.36823 1.52691 1.7187 1.22645 2.16837C0.925995 2.61803 0.765626 3.14669 0.765626 3.6875C0.765626 4.41271 1.05371 5.10821 1.56651 5.621C2.0793 6.1338 2.7748 6.42188 3.50001 6.42188ZM3.50001 16.5781C2.9592 16.5781 2.43053 16.7385 1.98087 17.039C1.5312 17.3394 1.18073 17.7665 0.973768 18.2661C0.76681 18.7658 0.71266 19.3156 0.818167 19.846C0.923673 20.3764 1.1841 20.8636 1.56651 21.246C1.94892 21.6284 2.43614 21.8888 2.96655 21.9944C3.49697 22.0999 4.04676 22.0457 4.54641 21.8388C5.04605 21.6318 5.4731 21.2813 5.77356 20.8317C6.07402 20.382 6.23439 19.8533 6.23439 19.3125C6.23439 18.5873 5.9463 17.8918 5.4335 17.379C4.92071 16.8662 4.22521 16.5781 3.50001 16.5781Z" fill="#5F6368"/>
</svg>
