<svg width="18" height="28" viewBox="0 0 18 28" fill="none" xmlns="http://www.w3.org/2000/svg">
<path d="M14.625 0.40625H3.375C2.50476 0.40625 1.67016 0.751952 1.05481 1.36731C0.439452 1.98266 0.09375 2.81726 0.09375 3.6875V24.3125C0.09375 25.1827 0.439452 26.0173 1.05481 26.6327C1.67016 27.248 2.50476 27.5938 3.375 27.5938H14.625C15.4952 27.5938 16.3298 27.248 16.9452 26.6327C17.5605 26.0173 17.9063 25.1827 17.9062 24.3125V3.6875C17.9063 2.81726 17.5605 1.98266 16.9452 1.36731C16.3298 0.751952 15.4952 0.40625 14.625 0.40625ZM15.0938 24.3125C15.0938 24.4368 15.0444 24.556 14.9565 24.644C14.8685 24.7319 14.7493 24.7812 14.625 24.7812H3.375C3.25068 24.7812 3.13145 24.7319 3.04354 24.644C2.95564 24.556 2.90625 24.4368 2.90625 24.3125V3.6875C2.90625 3.56318 2.95564 3.44395 3.04354 3.35604C3.13145 3.26814 3.25068 3.21875 3.375 3.21875H14.625C14.7493 3.21875 14.8685 3.26814 14.9565 3.35604C15.0444 3.44395 15.0938 3.56318 15.0938 3.6875V24.3125ZM13.2188 6.5C13.2188 6.87296 13.0706 7.23065 12.8069 7.49437C12.5431 7.75809 12.1855 7.90625 11.8125 7.90625H6.1875C5.81454 7.90625 5.45685 7.75809 5.19313 7.49437C4.92941 7.23065 4.78125 6.87296 4.78125 6.5C4.78125 6.12704 4.92941 5.76935 5.19313 5.50563C5.45685 5.24191 5.81454 5.09375 6.1875 5.09375H11.8125C12.1855 5.09375 12.5431 5.24191 12.8069 5.50563C13.0706 5.76935 13.2188 6.12704 13.2188 6.5Z" fill="#1967D2"/>
</svg>
