<svg width="31" height="26" viewBox="0 0 31 26" fill="none" xmlns="http://www.w3.org/2000/svg">
<path d="M28.8868 1.29999C27.1353 -0.200012 24.3329 -0.200012 22.5814 1.29999L19.4287 3.99999L18.2027 2.94999C17.5021 2.34999 16.4512 2.34999 15.7506 2.94999L14.3494 3.99999C13.6488 4.59999 13.6488 5.49999 14.3494 6.09999L23.1069 13.6C23.8075 14.2 24.8584 14.2 25.559 13.6L26.785 12.55C27.4856 11.95 27.4856 11.05 26.785 10.45L25.7341 9.39999L28.8868 6.69999C30.6383 5.19999 30.6383 2.79999 28.8868 1.29999ZM5.41675 16C1.56345 19.3 3.8404 20.8 0.337402 24.7L1.56345 25.75C6.11735 22.75 7.86885 24.7 11.7221 21.4L20.6548 13.75L14.3494 8.34999L5.41675 16Z" fill="black"/>
</svg>
