<svg width="30" height="30" viewBox="0 0 30 30" fill="none" xmlns="http://www.w3.org/2000/svg">
<path d="M3.28125 7.5C3.28125 7.12704 3.42941 6.76935 3.69313 6.50563C3.95685 6.24191 4.31454 6.09375 4.6875 6.09375H25.3125C25.6854 6.09375 26.0431 6.24191 26.3068 6.50563C26.5706 6.76935 26.7187 7.12704 26.7187 7.5C26.7187 7.87296 26.5706 8.23065 26.3068 8.49437C26.0431 8.75809 25.6854 8.90625 25.3125 8.90625H4.6875C4.31454 8.90625 3.95685 8.75809 3.69313 8.49437C3.42941 8.23065 3.28125 7.87296 3.28125 7.5ZM4.6875 16.4063H18.2812C18.6542 16.4063 19.0119 16.2581 19.2756 15.9944C19.5393 15.7306 19.6875 15.373 19.6875 15C19.6875 14.627 19.5393 14.2694 19.2756 14.0056C19.0119 13.7419 18.6542 13.5938 18.2812 13.5938H4.6875C4.31454 13.5938 3.95685 13.7419 3.69313 14.0056C3.42941 14.2694 3.28125 14.627 3.28125 15C3.28125 15.373 3.42941 15.7306 3.69313 15.9944C3.95685 16.2581 4.31454 16.4063 4.6875 16.4063ZM12.6562 21.0938H4.6875C4.31454 21.0938 3.95685 21.2419 3.69313 21.5056C3.42941 21.7694 3.28125 22.127 3.28125 22.5C3.28125 22.873 3.42941 23.2307 3.69313 23.4944C3.95685 23.7581 4.31454 23.9063 4.6875 23.9063H12.6562C13.0292 23.9063 13.3869 23.7581 13.6506 23.4944C13.9143 23.2307 14.0625 22.873 14.0625 22.5C14.0625 22.127 13.9143 21.7694 13.6506 21.5056C13.3869 21.2419 13.0292 21.0938 12.6562 21.0938ZM29.4714 14.9356C29.3631 15.2917 29.118 15.5905 28.7898 15.7662C28.4616 15.9419 28.0771 15.9804 27.7207 15.8731L24.8437 15.0152V22.5C24.8437 23.3956 24.5588 24.2679 24.0301 24.9907C23.5014 25.7135 22.7564 26.2494 21.9029 26.5207C21.0495 26.792 20.1318 26.7846 19.2828 26.4997C18.4338 26.2148 17.6975 25.6671 17.1804 24.9359C16.6634 24.2047 16.3924 23.3279 16.4068 22.4325C16.4211 21.5371 16.7201 20.6694 17.2603 19.9552C17.8005 19.2409 18.554 18.7171 19.4118 18.4596C20.2695 18.2021 21.1869 18.2241 22.0312 18.5227V13.125C22.0313 12.9058 22.0826 12.6896 22.181 12.4938C22.2795 12.2979 22.4224 12.1278 22.5983 11.997C22.7742 11.8662 22.9782 11.7783 23.1941 11.7404C23.41 11.7024 23.6318 11.7155 23.8418 11.7785L28.5293 13.1848C28.8863 13.2921 29.1861 13.5368 29.3628 13.8651C29.5395 14.1934 29.5786 14.5784 29.4714 14.9356ZM22.0312 22.5C22.0312 22.2219 21.9487 21.95 21.7942 21.7187C21.6397 21.4875 21.4201 21.3072 21.1631 21.2008C20.9062 21.0944 20.6234 21.0665 20.3506 21.1208C20.0778 21.175 19.8273 21.309 19.6306 21.5056C19.4339 21.7023 19.3 21.9529 19.2457 22.2257C19.1915 22.4984 19.2193 22.7812 19.3258 23.0382C19.4322 23.2951 19.6124 23.5147 19.8437 23.6693C20.075 23.8238 20.3468 23.9063 20.625 23.9063C20.9979 23.9063 21.3556 23.7581 21.6193 23.4944C21.8831 23.2307 22.0312 22.873 22.0312 22.5Z" fill="#5F6368" fill-opacity="0.53"/>
</svg>
