<svg width="21" height="21" viewBox="0 0 21 21" fill="none" xmlns="http://www.w3.org/2000/svg">
<path d="M19.4649 11.9554H12.1733V19.2471C12.1733 19.6339 12.0196 20.0048 11.7461 20.2783C11.4726 20.5518 11.1017 20.7054 10.7149 20.7054C10.3282 20.7054 9.95722 20.5518 9.68373 20.2783C9.41024 20.0048 9.25659 19.6339 9.25659 19.2471V11.9554H1.96493C1.57815 11.9554 1.20722 11.8018 0.933728 11.5283C0.660238 11.2548 0.506592 10.8839 0.506592 10.4971C0.506592 10.1103 0.660238 9.73938 0.933728 9.46589C1.20722 9.1924 1.57815 9.03875 1.96493 9.03875H9.25659V1.74708C9.25659 1.36031 9.41024 0.989376 9.68373 0.715885C9.95722 0.442395 10.3282 0.28875 10.7149 0.28875C11.1017 0.28875 11.4726 0.442395 11.7461 0.715885C12.0196 0.989376 12.1733 1.36031 12.1733 1.74708V9.03875H19.4649C19.8517 9.03875 20.2226 9.1924 20.4961 9.46589C20.7696 9.73938 20.9233 10.1103 20.9233 10.4971C20.9233 10.8839 20.7696 11.2548 20.4961 11.5283C20.2226 11.8018 19.8517 11.9554 19.4649 11.9554Z" fill="#1967D2"/>
</svg>
