<svg width="25" height="25" viewBox="0 0 25 25" fill="none" xmlns="http://www.w3.org/2000/svg">
<g clip-path="url(#clip0_43_1113)">
<mask id="mask0_43_1113" style="mask-type:luminance" maskUnits="userSpaceOnUse" x="0" y="0" width="25" height="25">
<path d="M19.1079 7.90157C19.7721 8.85297 20.2216 9.93738 20.4251 11.0797H22.9173V13.9203H20.4251C20.2216 15.0626 19.7721 16.1471 19.1079 17.0984L20.871 18.8615L18.8621 20.8703L17.0991 19.1073C16.1477 19.7715 15.0633 20.2209 13.921 20.4245V22.9167H11.0803V20.4245C9.93802 20.2209 8.85361 19.7715 7.90221 19.1073L6.13919 20.8703L4.13034 18.8615L5.89336 17.0984C5.22916 16.1471 4.77972 15.0626 4.57617 13.9203H2.08398V11.0797H4.57617C4.77972 9.93738 5.22916 8.85297 5.89336 7.90157L4.13034 6.13855L6.13919 4.1297L7.90221 5.89272C8.85361 5.22852 9.93802 4.77908 11.0803 4.57553V2.08334H13.921V4.57553C15.0633 4.77908 16.1477 5.22852 17.0991 5.89272L18.8621 4.1297L20.871 6.13855L19.1079 7.90157Z" fill="white" stroke="white" stroke-width="4" stroke-linejoin="round"/>
<path d="M12.5007 15.1042C13.1913 15.1042 13.8537 14.8298 14.3421 14.3414C14.8305 13.8531 15.1048 13.1907 15.1048 12.5C15.1048 11.8093 14.8305 11.147 14.3421 10.6586C13.8537 10.1702 13.1913 9.89584 12.5007 9.89584C11.81 9.89584 11.1476 10.1702 10.6592 10.6586C10.1709 11.147 9.89648 11.8093 9.89648 12.5C9.89648 13.1907 10.1709 13.8531 10.6592 14.3414C11.1476 14.8298 11.81 15.1042 12.5007 15.1042Z" fill="black" stroke="black" stroke-width="4" stroke-linejoin="round"/>
</mask>
<g mask="url(#mask0_43_1113)">
<path d="M0 0H25V25H0V0Z" fill="#5F6368" fill-opacity="0.57"/>
</g>
</g>
<defs>
<clipPath id="clip0_43_1113">
<rect width="25" height="25" fill="white"/>
</clipPath>
</defs>
</svg>
