<svg width="40" height="40" viewBox="0 0 40 40" fill="none" xmlns="http://www.w3.org/2000/svg">
<circle cx="20" cy="20" r="20" fill="#1967D2"/>
<path d="M29.0175 18.049C29.5602 17.5044 30.2883 17.1843 31.0565 17.1528C31.8247 17.1213 32.5766 17.3806 33.162 17.8789L33.3375 18.0409L33.5076 18.2259C33.9806 18.7818 34.2403 19.4879 34.2403 20.2178C34.2403 20.9477 33.9806 21.6538 33.5076 22.2097L33.3456 22.3852L24.063 31.7043C23.8543 31.9138 23.6023 32.0751 23.3246 32.1768L23.1126 32.2416L18.9465 33.2676C18.8426 33.2932 18.7341 33.2937 18.63 33.2692C18.5258 33.2446 18.429 33.1956 18.3475 33.1262C18.266 33.0569 18.2022 32.9691 18.1613 32.8702C18.1204 32.7714 18.1035 32.6642 18.1122 32.5575L18.1325 32.4441L19.2017 28.2996C19.2732 28.0206 19.4035 27.7601 19.5837 27.5355L19.7268 27.3748L29.0175 18.049ZM18.6725 12.0105L18.7292 12.1239L22.7549 22.4244L21.7127 23.4693L20.8055 21.1486H15.4095L14.0055 24.7666C13.9483 24.9141 13.8411 25.0367 13.7027 25.1132C13.5643 25.1897 13.4034 25.2152 13.2482 25.1851L13.1307 25.1514C12.9836 25.0942 12.8611 24.9873 12.7846 24.8491C12.7082 24.711 12.6826 24.5505 12.7122 24.3954L12.746 24.2779L17.471 12.1252C17.5162 12.0084 17.593 11.9065 17.6928 11.8309C17.7927 11.7552 17.9116 11.7088 18.0363 11.6969C18.161 11.685 18.2865 11.708 18.3989 11.7634C18.5112 11.8188 18.606 11.9043 18.6725 12.0105ZM18.1014 14.2245L15.9347 19.7973H20.279L18.1014 14.2258V14.2245Z" fill="white"/>
</svg>
