<svg width="30" height="30" viewBox="0 0 30 30" fill="none" xmlns="http://www.w3.org/2000/svg">
<g id="mdi:timer-play">
<path id="Vector" d="M18.75 3.75H11.25V1.25H18.75V3.75ZM16.25 23.75C16.25 25.0375 16.575 26.25 17.1375 27.2875C16.45 27.425 15.7375 27.5 15 27.5C12.0163 27.5 9.15483 26.3147 7.04505 24.205C4.93526 22.0952 3.75 19.2337 3.75 16.25C3.75 13.2663 4.93526 10.4048 7.04505 8.29505C9.15483 6.18526 12.0163 5 15 5C17.65 5 20.0875 5.925 22.025 7.5L23.8 5.7C24.4375 6.25 25 6.825 25.5625 7.4625L23.7875 9.2375C25.3823 11.2267 26.251 13.7004 26.25 16.25V16.6875C25.45 16.4125 24.625 16.25 23.75 16.25C19.6125 16.25 16.25 19.6125 16.25 23.75ZM16.25 8.75H13.75V17.5H16.25V8.75ZM21.25 20V27.5L27.5 23.75L21.25 20Z" fill="#5F6368" fill-opacity="0.53"/>
</g>
</svg>
