<svg width="30" height="30" viewBox="0 0 30 30" fill="none" xmlns="http://www.w3.org/2000/svg">
<g id="ri:user-settings-fill">
<path id="Vector" d="M15 17.5V27.5H5C5 24.8478 6.05357 22.3043 7.92893 20.4289C9.8043 18.5536 12.3478 17.5 15 17.5ZM15 16.25C10.8563 16.25 7.5 12.8938 7.5 8.75C7.5 4.60625 10.8563 1.25 15 1.25C19.1438 1.25 22.5 4.60625 22.5 8.75C22.5 12.8938 19.1438 16.25 15 16.25ZM18.2438 23.515C18.0853 22.848 18.0853 22.1532 18.2438 21.4863L17.0038 20.77L18.2538 18.605L19.4938 19.3213C19.9915 18.8499 20.5931 18.5022 21.25 18.3063V16.875H23.75V18.3063C24.415 18.5038 25.015 18.8563 25.5063 19.3213L26.7463 18.605L27.9963 20.77L26.7563 21.4863C26.9146 22.1528 26.9146 22.8472 26.7563 23.5138L27.9963 24.23L26.7463 26.395L25.5063 25.6788C25.0086 26.1502 24.4069 26.4979 23.75 26.6938V28.125H21.25V26.6938C20.5931 26.4979 19.9915 26.1502 19.4938 25.6788L18.2538 26.395L17.0038 24.23L18.2438 23.515ZM22.5 21.25C22.1685 21.25 21.8505 21.3817 21.6161 21.6161C21.3817 21.8505 21.25 22.1685 21.25 22.5C21.25 22.8315 21.3817 23.1495 21.6161 23.3839C21.8505 23.6183 22.1685 23.75 22.5 23.75C22.8315 23.75 23.1495 23.6183 23.3839 23.3839C23.6183 23.1495 23.75 22.8315 23.75 22.5C23.75 22.1685 23.6183 21.8505 23.3839 21.6161C23.1495 21.3817 22.8315 21.25 22.5 21.25Z" fill="#5F6368" fill-opacity="0.53"/>
</g>
</svg>
